<?xml version="1.0" encoding="UTF-8" standalone="no"?>
<!-- Created with Inkscape (http://www.inkscape.org/) -->

<svg
   width="32"
   height="32"
   viewBox="0 0 32 32"
   version="1.1"
   id="svg1"
   xmlns="http://www.w3.org/2000/svg"
   xmlns:svg="http://www.w3.org/2000/svg">
  <defs
     id="defs1" />
  <g
     id="layer1"
     transform="translate(-0.71641795,-0.47761193)">
    <path
       id="path3"
       style="fill:#9fd3c7;fill-opacity:1;stroke-width:0.18092"
       d="m 16.452337,3.495018 c -0.05617,0.0048 -0.112608,0.01638 -0.155682,0.03366 -0.08615,0.03455 -2.671514,1.797101 -5.7452,3.91681 -3.9985186,2.757508 -5.6147907,3.899045 -5.6805316,4.011959 -0.070644,0.121326 -0.086267,0.199336 -0.067728,0.337352 0.013261,0.09874 0.046661,0.213126 0.074243,0.254184 0.046017,0.06852 3.6598443,2.584626 3.7122436,2.584626 0.012653,0 0.043535,-0.161012 0.068648,-0.357776 0.05318,-0.416688 0.2879667,-1.17406 0.5265123,-1.698631 0.2161514,-0.475319 0.8358427,-1.401802 1.2110827,-1.810659 1.275979,-1.390308 2.954887,-2.26297 4.923099,-2.558959 0.548362,-0.08247 1.796404,-0.08298 2.355281,-0.0012 2.133812,0.312853 4.032225,1.403475 5.311162,3.051126 0.697649,0.898798 1.249409,2.183956 1.355275,3.156996 0.01312,0.120444 0.03629,0.217975 0.0515,0.216651 0.01521,-0.0015 0.707282,-0.472446 1.537934,-1.046971 l 1.510271,-1.044576 0.02996,0.302215 c 0.0165,0.16622 0.04904,0.497253 0.07232,0.735629 0.07388,0.756442 0.267537,1.494154 0.864696,3.293671 0.319863,0.96391 0.628767,1.968184 0.686411,2.231756 l 0.104813,0.479278 -0.12726,0.235701 c -0.238627,0.442075 -0.239373,0.978029 -0.001,1.381586 l 0.116458,0.197483 -0.06436,0.400556 c -0.102698,0.639683 -0.07493,2.455174 0.04566,2.988835 0.0095,0.04222 0.03551,0.06012 0.05776,0.03957 0.02396,-0.02208 0.032,-0.160699 0.01972,-0.339636 l -0.02076,-0.302335 0.07761,0.233653 c 0.04271,0.128504 0.0781,0.269972 0.07868,0.314307 8.06e-4,0.06089 0.04427,0.07334 0.177525,0.051 0.254375,-0.04272 0.293784,-0.113564 0.296812,-0.533122 l 0.0027,-0.357894 0.08167,0.394282 c 0.06237,0.300937 0.09896,0.394281 0.15438,0.394281 0.05719,0 0.07325,-0.04656 0.07577,-0.219044 l 0.0032,-0.219043 0.05685,0.193835 c 0.08666,0.295453 0.191771,0.231521 0.191771,-0.1166 0,-0.322009 0.04135,-0.316398 0.07845,0.01075 0.02857,0.251876 0.13637,0.331184 0.138447,0.101872 0.001,-0.115321 0.0061,-0.119167 0.04031,-0.03155 0.02343,0.05987 0.06428,0.08537 0.102055,0.06379 0.05321,-0.03045 0.05963,-0.109377 0.04153,-0.508707 l -0.02138,-0.472661 0.124122,0.455997 0.124116,0.456006 0.137297,-0.03743 c 0.185763,-0.0505 0.392283,-0.200626 0.392283,-0.285231 0,-0.03804 -0.0694,-0.376697 -0.154228,-0.752636 -0.262478,-1.163368 -0.549039,-1.887234 -0.942847,-2.381663 -0.164148,-0.206104 -0.197447,-0.280745 -0.197447,-0.442085 0,-0.329127 -0.112659,-0.653002 -0.290527,-0.835226 -0.14652,-0.150115 -0.16974,-0.207901 -0.227854,-0.567354 -0.105869,-0.654818 -0.288073,-1.29493 -0.793675,-2.787812 -0.671076,-1.981486 -0.805418,-2.655685 -0.806012,-4.045845 -4.07e-4,-0.589888 -0.01177,-0.729425 -0.06888,-0.829977 C 28.010433,11.276405 16.81323,3.55147 16.606716,3.502298 c -0.04217,-0.01004 -0.09812,-0.01207 -0.154305,-0.0073 z" />
    <g
       style="fill:#ececec;fill-opacity:1"
       id="g5"
       transform="matrix(0.03406832,0,0,0.03406832,8.1769605,8.054342)">
      <g
         transform="translate(0,-540.36)"
         id="g4"
         style="fill:#ececec;fill-opacity:1">
        <g
           id="g3"
           style="fill:#ececec;fill-opacity:1">
          <g
             id="g2"
             style="fill:#ececec;fill-opacity:1">
            <path
               d="M 351.1,846.96 254,779.06 v -116.7 c 0,-5.5 -4.5,-10 -10,-10 -5.5,0 -10,4.5 -10,10 v 122 c 0,3.3 1.6,6.3 4.3,8.2 l 101.4,70.9 c 1.7,1.2 3.7,1.8 5.7,1.8 v 0 c 3.1,0 6.2,-1.5 8.2,-4.4 3.1,-4.5 2,-10.7 -2.5,-13.9 z"
               id="path1"
               style="fill:#ececec;fill-opacity:1" />
            <path
               d="m 416.4,611.96 v 0 C 370.2,565.76 309,540.36 244,540.36 c -65,0 -126.2,25.4 -172.4,71.6 C 25.4,658.16 0,719.36 0,784.36 c 0,65 25.4,126.2 71.6,172.4 46.2,46.2 107.4,71.6 172.4,71.6 65,0 126.2,-25.4 172.4,-71.6 46.2,-46.2 71.6,-107.4 71.6,-172.4 0,-65 -25.4,-126.2 -71.6,-172.4 z M 254,1008.16 v 0 -40.8 c 0,-5.5 -4.5,-10 -10,-10 -5.5,0 -10,4.5 -10,10 v 40.8 C 118.4,1003.06 25.3,909.96 20.2,794.36 H 61 c 5.5,0 10,-4.5 10,-10 0,-5.5 -4.5,-10 -10,-10 H 20.2 c 5.1,-115.6 98.2,-208.7 213.8,-213.8 v 40.8 c 0,5.5 4.5,10 10,10 5.5,0 10,-4.5 10,-10 v -40.8 c 115.6,5.1 208.7,98.2 213.8,213.8 H 427 c -5.5,0 -10,4.5 -10,10 0,5.5 4.5,10 10,10 h 40.8 c -5.1,115.6 -98.2,208.7 -213.8,213.8 z"
               id="path2"
               style="fill:#ececec;fill-opacity:1" />
          </g>
        </g>
      </g>
    </g>
  </g>
</svg>
